<mxfile host="Electron" agent="Mozilla/5.0 (Windows NT 10.0; Win64; x64) AppleWebKit/537.36 (KHTML, like Gecko) draw.io/27.0.5 Chrome/134.0.6998.205 Electron/35.3.0 Safari/537.36" version="27.0.5">
  <diagram name="Page-1" id="ZCyS_F9NomKYf67iZ0_Z">
    <mxGraphModel dx="3660" dy="1811" grid="1" gridSize="10" guides="1" tooltips="1" connect="1" arrows="1" fold="1" page="1" pageScale="1" pageWidth="827" pageHeight="1169" math="0" shadow="0">
      <root>
        <mxCell id="0" />
        <mxCell id="1" parent="0" />
        <mxCell id="qGmumcwgssiqfvpmwnrn-1" value="&lt;&lt;interface&gt;&gt;&#xa;RouteStrategy" style="swimlane;fontStyle=1;align=center;verticalAlign=top;childLayout=stackLayout;horizontal=1;startSize=71;horizontalStack=0;resizeParent=1;resizeParentMax=0;resizeLast=0;collapsible=0;marginBottom=0;" vertex="1" parent="1">
          <mxGeometry x="653" y="262" width="371" height="126" as="geometry" />
        </mxCell>
        <mxCell id="qGmumcwgssiqfvpmwnrn-2" style="line;strokeWidth=1;fillColor=none;align=left;verticalAlign=middle;spacingTop=-1;spacingLeft=3;spacingRight=3;rotatable=0;labelPosition=right;points=[];portConstraint=eastwest;strokeColor=inherit;" vertex="1" parent="qGmumcwgssiqfvpmwnrn-1">
          <mxGeometry y="71" width="371" height="8" as="geometry" />
        </mxCell>
        <mxCell id="qGmumcwgssiqfvpmwnrn-3" value="+calculateRoute(start, end, preferences)" style="text;strokeColor=none;fillColor=none;align=left;verticalAlign=top;spacingLeft=4;spacingRight=4;overflow=hidden;rotatable=0;points=[[0,0.5],[1,0.5]];portConstraint=eastwest;" vertex="1" parent="qGmumcwgssiqfvpmwnrn-1">
          <mxGeometry y="79" width="371" height="47" as="geometry" />
        </mxCell>
        <mxCell id="qGmumcwgssiqfvpmwnrn-4" value="StandardRouteStrategy" style="swimlane;fontStyle=1;align=center;verticalAlign=top;childLayout=stackLayout;horizontal=1;startSize=47.2;horizontalStack=0;resizeParent=1;resizeParentMax=0;resizeLast=0;collapsible=0;marginBottom=0;" vertex="1" parent="1">
          <mxGeometry x="180" y="462" width="404" height="102.2" as="geometry" />
        </mxCell>
        <mxCell id="qGmumcwgssiqfvpmwnrn-5" style="line;strokeWidth=1;fillColor=none;align=left;verticalAlign=middle;spacingTop=-1;spacingLeft=3;spacingRight=3;rotatable=0;labelPosition=right;points=[];portConstraint=eastwest;strokeColor=inherit;" vertex="1" parent="qGmumcwgssiqfvpmwnrn-4">
          <mxGeometry y="47.2" width="404" height="8" as="geometry" />
        </mxCell>
        <mxCell id="qGmumcwgssiqfvpmwnrn-6" value="+calculateRoute(start, end, preferences)" style="text;strokeColor=none;fillColor=none;align=left;verticalAlign=top;spacingLeft=4;spacingRight=4;overflow=hidden;rotatable=0;points=[[0,0.5],[1,0.5]];portConstraint=eastwest;" vertex="1" parent="qGmumcwgssiqfvpmwnrn-4">
          <mxGeometry y="55.2" width="404" height="47" as="geometry" />
        </mxCell>
        <mxCell id="qGmumcwgssiqfvpmwnrn-7" value="AccessibleRouteStrategy" style="swimlane;fontStyle=1;align=center;verticalAlign=top;childLayout=stackLayout;horizontal=1;startSize=47.2;horizontalStack=0;resizeParent=1;resizeParentMax=0;resizeLast=0;collapsible=0;marginBottom=0;" vertex="1" parent="1">
          <mxGeometry x="634" y="462" width="409" height="102.2" as="geometry" />
        </mxCell>
        <mxCell id="qGmumcwgssiqfvpmwnrn-8" style="line;strokeWidth=1;fillColor=none;align=left;verticalAlign=middle;spacingTop=-1;spacingLeft=3;spacingRight=3;rotatable=0;labelPosition=right;points=[];portConstraint=eastwest;strokeColor=inherit;" vertex="1" parent="qGmumcwgssiqfvpmwnrn-7">
          <mxGeometry y="47.2" width="409" height="8" as="geometry" />
        </mxCell>
        <mxCell id="qGmumcwgssiqfvpmwnrn-9" value="+calculateRoute(start, end, preferences)" style="text;strokeColor=none;fillColor=none;align=left;verticalAlign=top;spacingLeft=4;spacingRight=4;overflow=hidden;rotatable=0;points=[[0,0.5],[1,0.5]];portConstraint=eastwest;" vertex="1" parent="qGmumcwgssiqfvpmwnrn-7">
          <mxGeometry y="55.2" width="409" height="47" as="geometry" />
        </mxCell>
        <mxCell id="qGmumcwgssiqfvpmwnrn-10" value="MultimodalRouteStrategy" style="swimlane;fontStyle=1;align=center;verticalAlign=top;childLayout=stackLayout;horizontal=1;startSize=47.2;horizontalStack=0;resizeParent=1;resizeParentMax=0;resizeLast=0;collapsible=0;marginBottom=0;" vertex="1" parent="1">
          <mxGeometry x="1093" y="462" width="412" height="102.2" as="geometry" />
        </mxCell>
        <mxCell id="qGmumcwgssiqfvpmwnrn-11" style="line;strokeWidth=1;fillColor=none;align=left;verticalAlign=middle;spacingTop=-1;spacingLeft=3;spacingRight=3;rotatable=0;labelPosition=right;points=[];portConstraint=eastwest;strokeColor=inherit;" vertex="1" parent="qGmumcwgssiqfvpmwnrn-10">
          <mxGeometry y="47.2" width="412" height="8" as="geometry" />
        </mxCell>
        <mxCell id="qGmumcwgssiqfvpmwnrn-12" value="+calculateRoute(start, end, preferences)" style="text;strokeColor=none;fillColor=none;align=left;verticalAlign=top;spacingLeft=4;spacingRight=4;overflow=hidden;rotatable=0;points=[[0,0.5],[1,0.5]];portConstraint=eastwest;" vertex="1" parent="qGmumcwgssiqfvpmwnrn-10">
          <mxGeometry y="55.2" width="412" height="47" as="geometry" />
        </mxCell>
        <mxCell id="qGmumcwgssiqfvpmwnrn-13" value="RouteService" style="swimlane;fontStyle=1;align=center;verticalAlign=top;childLayout=stackLayout;horizontal=1;startSize=36.8;horizontalStack=0;resizeParent=1;resizeParentMax=0;resizeLast=0;collapsible=0;marginBottom=0;" vertex="1" parent="1">
          <mxGeometry x="674" y="20" width="330" height="192.8" as="geometry" />
        </mxCell>
        <mxCell id="qGmumcwgssiqfvpmwnrn-14" value="-routeStrategy: RouteStrategy" style="text;strokeColor=none;fillColor=none;align=left;verticalAlign=top;spacingLeft=4;spacingRight=4;overflow=hidden;rotatable=0;points=[[0,0.5],[1,0.5]];portConstraint=eastwest;" vertex="1" parent="qGmumcwgssiqfvpmwnrn-13">
          <mxGeometry y="36.8" width="330" height="37" as="geometry" />
        </mxCell>
        <mxCell id="qGmumcwgssiqfvpmwnrn-15" style="line;strokeWidth=1;fillColor=none;align=left;verticalAlign=middle;spacingTop=-1;spacingLeft=3;spacingRight=3;rotatable=0;labelPosition=right;points=[];portConstraint=eastwest;strokeColor=inherit;" vertex="1" parent="qGmumcwgssiqfvpmwnrn-13">
          <mxGeometry y="73.8" width="330" height="8" as="geometry" />
        </mxCell>
        <mxCell id="qGmumcwgssiqfvpmwnrn-16" value="+setRouteStrategy(RouteStrategy)" style="text;strokeColor=none;fillColor=none;align=left;verticalAlign=top;spacingLeft=4;spacingRight=4;overflow=hidden;rotatable=0;points=[[0,0.5],[1,0.5]];portConstraint=eastwest;" vertex="1" parent="qGmumcwgssiqfvpmwnrn-13">
          <mxGeometry y="81.8" width="330" height="37" as="geometry" />
        </mxCell>
        <mxCell id="qGmumcwgssiqfvpmwnrn-17" value="+findRoute(start, end, preferences)" style="text;strokeColor=none;fillColor=none;align=left;verticalAlign=top;spacingLeft=4;spacingRight=4;overflow=hidden;rotatable=0;points=[[0,0.5],[1,0.5]];portConstraint=eastwest;" vertex="1" parent="qGmumcwgssiqfvpmwnrn-13">
          <mxGeometry y="118.8" width="330" height="37" as="geometry" />
        </mxCell>
        <mxCell id="qGmumcwgssiqfvpmwnrn-18" value="+calculateOptimalRoutes()" style="text;strokeColor=none;fillColor=none;align=left;verticalAlign=top;spacingLeft=4;spacingRight=4;overflow=hidden;rotatable=0;points=[[0,0.5],[1,0.5]];portConstraint=eastwest;" vertex="1" parent="qGmumcwgssiqfvpmwnrn-13">
          <mxGeometry y="155.8" width="330" height="37" as="geometry" />
        </mxCell>
        <mxCell id="qGmumcwgssiqfvpmwnrn-19" value="" style="curved=1;dashed=1;startArrow=block;startSize=16;startFill=0;endArrow=none;exitX=0;exitY=0.77;entryX=0.5;entryY=0;rounded=0;" edge="1" parent="1" source="qGmumcwgssiqfvpmwnrn-1" target="qGmumcwgssiqfvpmwnrn-4">
          <mxGeometry relative="1" as="geometry">
            <Array as="points">
              <mxPoint x="382" y="437" />
            </Array>
          </mxGeometry>
        </mxCell>
        <mxCell id="qGmumcwgssiqfvpmwnrn-20" value="" style="curved=1;dashed=1;startArrow=block;startSize=16;startFill=0;endArrow=none;exitX=0.5;exitY=1;entryX=0.5;entryY=0;rounded=0;" edge="1" parent="1" source="qGmumcwgssiqfvpmwnrn-1" target="qGmumcwgssiqfvpmwnrn-7">
          <mxGeometry relative="1" as="geometry">
            <Array as="points" />
          </mxGeometry>
        </mxCell>
        <mxCell id="qGmumcwgssiqfvpmwnrn-21" value="" style="curved=1;dashed=1;startArrow=block;startSize=16;startFill=0;endArrow=none;exitX=1;exitY=0.77;entryX=0.5;entryY=0;rounded=0;" edge="1" parent="1" source="qGmumcwgssiqfvpmwnrn-1" target="qGmumcwgssiqfvpmwnrn-10">
          <mxGeometry relative="1" as="geometry">
            <Array as="points">
              <mxPoint x="1299" y="437" />
            </Array>
          </mxGeometry>
        </mxCell>
        <mxCell id="qGmumcwgssiqfvpmwnrn-22" value="" style="curved=1;startArrow=none;endArrow=open;endSize=12;exitX=0.5;exitY=1;entryX=0.5;entryY=0;rounded=0;" edge="1" parent="1" source="qGmumcwgssiqfvpmwnrn-13" target="qGmumcwgssiqfvpmwnrn-1">
          <mxGeometry relative="1" as="geometry">
            <Array as="points" />
          </mxGeometry>
        </mxCell>
      </root>
    </mxGraphModel>
  </diagram>
</mxfile>
